<?xml version="1.0" encoding="UTF-8" standalone="no"?>
<!-- Generator: Adobe Illustrator 19.0.0, SVG Export Plug-In . SVG Version: 6.00 Build 0)  -->

<svg
   version="1.1"
   id="Capa_1"
   x="0px"
   y="0px"
   viewBox="0 0 397.324 397.324"
   style="enable-background:new 0 0 397.324 397.324;"
   xml:space="preserve"
   sodipodi:docname="dark.svg"
   inkscape:version="1.3.2 (091e20e, 2023-11-25)"
   xmlns:inkscape="http://www.inkscape.org/namespaces/inkscape"
   xmlns:sodipodi="http://sodipodi.sourceforge.net/DTD/sodipodi-0.dtd"
   xmlns="http://www.w3.org/2000/svg"
   xmlns:svg="http://www.w3.org/2000/svg"><defs
   id="defs2" /><sodipodi:namedview
   id="namedview2"
   pagecolor="#ffffff"
   bordercolor="#000000"
   borderopacity="0.25"
   inkscape:showpageshadow="2"
   inkscape:pageopacity="0.0"
   inkscape:pagecheckerboard="0"
   inkscape:deskcolor="#d1d1d1"
   showguides="true"
   inkscape:zoom="0.59397368"
   inkscape:cx="189.40233"
   inkscape:cy="198.662"
   inkscape:window-width="1280"
   inkscape:window-height="449"
   inkscape:window-x="0"
   inkscape:window-y="25"
   inkscape:window-maximized="0"
   inkscape:current-layer="Capa_1" />
<path
   style="fill:#f9e0d2"
   d="m 28.241462,277.03973 c 0.387,52.69784 43.57969,95.26075 96.277518,94.87375 l 52.62995,-0.3865 c 8.50768,-0.0625 16.19052,-4.59925 20.49093,-12.15466 l 40.28101,-70.44269 c 1.64655,-2.26358 4.05534,-7.03316 4.00964,-13.25553 -0.0523,-7.12744 -3.34856,-13.81245 -9.03898,-18.36415 l -17.50421,-14.05922 92.8378,-0.68179 c 13.23668,-0.0972 23.91671,-10.93526 23.8195,-24.17195 -0.0972,-13.23667 -10.93526,-23.91671 -24.17194,-23.81951 l -159.9489,1.17463 c -3.09987,0.0228 -5.79469,-1.80162 -7.09296,-4.49614 l 20.29335,-20.57082 c 16.3961,-16.6615 20.6506,-42.79417 10.44976,-63.76332 L 166.64529,96.718834 54.197262,210.99025 c -16.91812,17.98906 -26.13642,41.45414 -25.9558,66.04948 z"
   id="path1" />
<g
   id="g2"
   transform="matrix(-0.71228041,-0.70189502,-0.70189502,0.71228041,478.25873,213.23463)">
	<path
   style="fill:#010101"
   d="m 297.498,129.968 c -11.952,2.72 -22.64,8.752 -31.008,17.104 -11.568,11.568 -18.72,27.552 -18.72,45.2 l 0.016,16.016 L 140.138,100.64 c -12.448,-12.448 -32.816,-12.448 -45.248,0 -12.448,12.448 -12.448,32.816 0,45.248 l 49.776,49.776 c -9.2,-0.944 -18.72,1.984 -25.776,9.024 -4.896,4.896 -7.808,11.024 -8.848,17.376 l -20.528,76.928 c -2.816,10.64 -0.096,22.432 8.224,30.768 l 37.216,37.216 c 40.464,40.464 106.032,40.464 146.496,0 19.6,-19.6 29.616,-45.088 30.208,-70.752 l 0.112,0.096 v -2.512 c 0,-0.048 0,-0.096 0,-0.112 l -0.016,-152.384 c 0.016,-6.432 -5.2,-11.648 -11.648,-11.648 -0.912,0 -1.792,0.08 -2.608,0.304 z m -1.712,165.872 c -0.544,22.656 -9.76,43.904 -25.68,59.808 -34.16,34.16 -89.712,34.16 -123.856,0 l -37.216,-37.216 c -3.984,-3.984 -5.472,-9.712 -4,-15.328 l 20.768,-78.432 c 0.384,-2.336 1.456,-5.744 4.368,-8.672 4.528,-4.528 9.984,-4.72 12.848,-4.432 l 22.352,2.256 c 3.36,0.336 6.576,-1.472 8.032,-4.528 1.456,-3.056 0.816,-6.688 -1.568,-9.088 L 106.186,134.56 c -6.24,-6.24 -6.24,-16.4 0,-22.624 6.24,-6.24 16.4,-6.24 22.624,0 L 241.914,225.04 c 4.816,4.816 11.872,5.824 17.728,3.2 2.512,-1.136 4.128,-3.632 4.128,-6.384 v -29.568 c 0,-12.8 4.992,-24.832 14.032,-33.888 5.104,-5.104 11.36,-8.96 18.08,-11.344 z"
   id="path2" />
</g>
</svg>
